<?xml version="1.0" encoding="UTF-8" standalone="no"?>
<!DOCTYPE svg PUBLIC "-//W3C//DTD SVG 1.1//EN" "http://www.w3.org/Graphics/SVG/1.1/DTD/svg11.dtd">
<svg width="100%" height="100%" viewBox="0 0 2880 2880" version="1.1" xmlns="http://www.w3.org/2000/svg" xmlns:xlink="http://www.w3.org/1999/xlink" xml:space="preserve" xmlns:serif="http://www.serif.com/" style="fill-rule:evenodd;clip-rule:evenodd;stroke-linejoin:round;stroke-miterlimit:2;">
    <g>
        <path d="M1557.89,1336L1557.89,1336.38C1557.91,1398.39 1557.94,1485.97 1557.89,1601.95C1557.87,1655.38 1558.62,1655.43 1560.05,1658.78C1567.35,1675.87 1588.88,1698.75 1621.98,1747.9C1645.93,1783.47 1680.13,1822.55 1673.05,1867.35C1672.54,1870.57 1668.91,1893.57 1658.89,1905.6C1646.66,1920.28 1617.35,1901.11 1583.31,1888.91C1560.5,1880.74 1552.89,1892.28 1521.97,1911.48C1518,1913.94 1504.29,1922.45 1469.35,1936.66C1457.72,1941.39 1449.07,1940.08 1444.16,1938.85L1444,1938.8L1448.588,1939.003C1450.888,1937.223 1449.442,1933.114 1450.002,1931.954C1451.632,1928.584 1452.09,1924.92 1451.57,1916.24C1450.97,1905.99 1451.75,1877.32 1451.21,1863.33C1450.9,1855.13 1451.61,1855.2 1451.48,1847.06C1451.41,1842.81 1450.72,1799.52 1450.91,1793.89C1451.51,1775.51 1451.23,1775.58 1451.31,1757.14C1451.64,1685.29 1451.49,1450.49 1451.33,1442.67C1450.86,1419.96 1450.8,1388.73 1450.88,1354.58L1450.91,1343.67L1455.87,1343.01C1485.55,1339.65 1515.7,1337.37 1546.26,1336.22L1557.89,1336Z" style="fill:rgb(117,41,63);"/>
        <path d="M1440.8,1937.1C1441.1,1937.24 1441.41,1937.52 1441.73,1937.8L1442,1938L1440,1937.21C1440.23,1936.95 1440.51,1936.96 1440.8,1937.1Z" style="fill:rgb(34,59,85);"/>
        <path d="M1442,1938L1444,1938.87L1443.2,1939L1442,1938Z" style="fill:rgb(34,59,85);"/>
        <path d="M1954.42,53C1975.49,53.002 1990.61,53.02 1990.89,53.066C1999.57,54.49 1998.53,62.111 1998.53,67.51C1998.71,309.674 1998.89,551.838 1999.07,794.002C1999.15,818.502 1999.29,818.421 1999.94,842.975C2000.31,857.031 1999.42,859.325 1986.67,861.839C1937.97,871.43 1937.78,870.124 1889.15,880.189C1828.6,892.719 1798.84,897.845 1790.95,899.204C1779.43,901.192 1746.16,908.008 1742.27,908.804C1696.79,918.126 1696.87,918.285 1692.9,919.012C1673.94,922.485 1676.42,927.354 1668.96,945.112C1657.97,971.303 1658.8,971.585 1647.57,997.734C1643.63,1006.9 1591.83,1132.68 1590.44,1136.54C1582.58,1158.33 1558.57,1209.7 1557.36,1218.32C1557.21,1219.45 1557.21,1249.16 1557.23,1311.71L1557.24,1336.34L1545.62,1336.55C1515.06,1337.7 1484.91,1339.98 1455.24,1343.34L1450.28,1344L1450.35,1320C1450.52,1272.73 1450.74,1223.57 1450.33,1185.8C1449.68,1125.63 1450.69,1125.71 1450.62,1120.48C1449.71,1053.45 1450.06,959.055 1450.11,945.019C1450.22,915.424 1451.15,915.041 1458.4,905.323C1459.3,904.315 1468.65,893.837 1469.69,892.731C1488.57,872.704 1486.73,871.206 1505.01,850.697C1515.27,839.179 1514.42,838.571 1519.42,832.053C1554.45,786.41 1551.88,784.643 1569.38,760.35C1586.76,736.225 1584.74,728.384 1590.81,704.112C1596.93,679.607 1596.64,679.632 1602.13,654.976C1609.32,622.72 1604.95,619.977 1616.28,611.031C1626.15,608.137 1647.7,600.497 1647.7,600.497C1665.44,593.342 1701.3,582.783 1709.6,573.673C1710.79,572.367 1714.26,571.902 1713.58,524.627C1712.71,464.458 1713.62,464.548 1713.51,459.324C1712.18,393.764 1714.02,351.366 1713.47,328.722C1712.2,276.141 1719.15,267.145 1706.24,250.583C1693.64,234.416 1684.9,218.291 1647.2,178.819C1633.63,164.612 1582.07,117.034 1580.01,115.263C1552.88,91.909 1554.15,90.591 1528.6,68.698C1520.39,61.657 1519.36,63.212 1518.8,62.47C1518.8,62.47 1517.76,54.013 1517.67,53.278C1619.7,53.209 1721.74,53.139 1823.77,53.074C1832.96,53.066 1908.08,52.996 1954.42,53Z" style="fill:rgb(17,60,87);"/>
        <path d="M1440.8,1937.1C1441.1,1937.24 1441.41,1937.52 1441.73,1937.8L1442,1938L1440,1937.21C1440.23,1936.95 1440.51,1936.96 1440.8,1937.1Z" style="fill:rgb(18,61,88);"/>
        <path d="M1442,1938L1444,1938.87L1443.2,1939L1442,1938Z" style="fill:rgb(18,61,88);"/>
        <path d="M2829.52,53.002C2831.43,53.027 2834.85,53.343 2836.33,55.25C2837.13,56.282 2838.59,58.164 2831.03,70.717C2813.91,99.146 2793.15,138.234 2788.55,145.621C2777.84,162.818 2759.89,197.589 2752.14,211.044C2727.03,254.687 2739.03,233.481 2725.24,258.638C2711.45,283.794 2688.94,330.339 2669.41,361.983C2564.8,515.95 2218.62,1049.8 2097.52,1182.44C2087.96,1178.9 2015.92,1147.46 1942.82,1157.83C1936.49,1158.73 1899.22,1160.56 1845.69,1187.49C1810.23,1205.33 1791.84,1226.51 1788.05,1230.86C1769.02,1252.77 1751.17,1274.83 1731.76,1320.78C1730.8,1323.07 1725.97,1335.27 1726.05,1336.61C1726.12,1337.8 1727.4,1338.69 1727.47,1339.87C1725.71,1340.11 1724.1,1341.05 1722.34,1341.29C1721.06,1341.45 1719.74,1340.77 1718.49,1341.06C1718.03,1341.17 1717.71,1341.35 1717.38,1341.56L1716.66,1342L1683.94,1338.92L1643.06,1336.62L1643.07,1335.31C1643.08,1333.92 1643.09,1332.92 1643.09,1332.52C1643.69,1242.95 1640.65,1242.19 1648.66,1222.26C1650.08,1218.72 1665.36,1180.74 1666.58,1178.05C1676.84,1155.58 1675.87,1155.24 1685.62,1132.57C1697.64,1104.62 1710.63,1067.12 1714.69,1063.81C1719.2,1060.12 1749.73,1055.52 1771.19,1050.37C1787.6,1046.43 1787.69,1047.17 1804.1,1043.43L1914.19,1018.48L1975.19,1005.39C1985.09,1002.66 1981.44,998.428 2003.62,903.959C2009.89,877.241 2008.66,871.625 2013.86,864.597C2018.94,857.741 2018.54,857.558 2023,850.22C2040.1,822.089 2039.42,821.759 2045.89,810.838C2065.63,777.483 2071.8,763.999 2076.52,756.584C2087.1,739.978 2088.15,734.991 2092.88,728.008C2100.05,717.422 2101.64,712.733 2115.72,688.72C2118.56,683.884 2118.49,683.953 2121.25,679.056C2141.88,642.478 2141.55,642.31 2143.4,639.16C2178.28,579.715 2177.64,579.348 2180.84,574.287C2183.25,570.496 2247.93,455.863 2257.93,439.408C2268.49,422.019 2287.05,387.995 2290.53,382.224C2300.14,366.304 2319.99,329.775 2321.18,327.914C2327.17,318.511 2353.2,272.068 2354,270.86C2364.49,255.079 2365.06,250.851 2370.22,242.354C2385.97,216.415 2385.22,215.999 2386.61,213.758C2397.2,196.679 2412.91,166.226 2418.98,156.448C2430.15,138.45 2448.17,105.194 2451.8,99.407C2462.91,81.707 2473.46,56.699 2481.12,54.319C2489.11,51.838 2813.01,53.817 2828.25,53.026C2828.42,53.017 2828.89,52.993 2829.52,53.002Z" style="fill:rgb(17,60,87);"/>
        <path d="M1447.02,2824.58L1448.72,2824.6L1447.88,2824.99L1447.02,2824.58ZM1446.03,2824.09C1446.35,2824.14 1446.65,2824.35 1446.95,2824.55L1447.02,2824.58L1445,2824.56C1445.37,2824.15 1445.71,2824.04 1446.03,2824.09ZM2039.91,1673.19C2042.92,1672.41 2046.05,1673.91 2049.11,1679.79C2065.35,1711.02 2097.3,1762.05 2102.86,1773.33C2103.52,1774.67 2110.89,1789.62 2110.97,1790.07C2111.21,1791.48 2110.02,1792.9 2110.26,1794.32C2109.4,1794.93 2108.22,1794.97 2107.37,1795.57C2106.54,1796.16 2079.84,1824.21 2077.45,1826.71C2063.48,1841.39 2063.33,1841.11 2049.46,1855.79C2002.26,1905.69 2000.37,1904.71 1998.76,1912.23C1998.02,1915.7 1998.75,2456.07 1998.8,2471.6C1998.94,2513.75 1999.56,2514.36 1995.41,2520.16C1994.52,2521.41 1978.33,2539.04 1965.81,2551.6C1942.95,2574.5 1913.98,2605.16 1907.53,2611.71C1874.56,2645.19 1875.39,2645.87 1867.46,2653.2C1851.51,2667.94 1852.81,2669.17 1837.18,2684.22C1821.71,2699.11 1819.46,2702.54 1813.07,2709.04L1752.53,2770.87C1731.36,2792.7 1731.22,2792.44 1710.27,2814.4C1699.16,2826.04 1697.8,2825 1681.72,2824.96L1547.03,2824.7C1511.64,2823.88 1495.55,2824.96 1461.03,2824.74L1448.72,2824.6L1448.93,2824.51C1449.27,2824.14 1449.12,2824.08 1450.52,2818.48C1452.23,2811.63 1451.1,2798.23 1451.09,2761.35C1451.08,2686.18 1450.75,2686.28 1450.86,2679.76C1451.86,2619.58 1450.99,2619.67 1451.12,2614.45C1451.99,2580.12 1450.22,2570.14 1451.43,2553.1C1451.51,2551.96 1448.23,2542.18 1445.01,2538.84C1444.09,2537.89 1445.93,2539.79 1445.01,2538.84L1510.32,2538.91C1588.48,2538.76 1592.27,2541.83 1597.89,2534.04C1599.95,2531.2 1615.7,2495.71 1617.19,2492.35C1619.72,2486.65 1635.9,2451.04 1637.53,2447.45C1643.61,2434.07 1644.6,2434.46 1647.44,2423.04C1649.51,2421.61 1651.78,2420.47 1653.86,2419.03C1659.13,2415.4 1689.07,2384.6 1692.98,2380.82C1729.31,2345.76 1728.87,2345.34 1732.06,2342.32C1738.78,2335.97 1737.89,2335.35 1742.99,2327.62C1748.84,2328.29 1780.77,2331.93 1816.34,2333.72C1826.75,2334.24 1824.96,2330.12 1827,2328.4C1827.08,2324.85 1827.83,2292.96 1827.03,2283.94C1825.95,2271.67 1814.56,2275.22 1799.9,2272.54C1764.69,2266.12 1764.56,2266.95 1730.22,2256.93C1667.12,2238.51 1567.01,2187.44 1551.05,2189.48C1543.88,2190.39 1475.48,2222.58 1468.99,2225.64C1454.19,2232.6 1453.66,2230.75 1449.04,2231C1450.45,2225.91 1451.29,2226.04 1451.31,2214.46C1451.36,2184.4 1451.17,2184.43 1451.27,2181.82C1451.88,2164.34 1451.42,2040.02 1451.43,2039.2C1451.51,2032.94 1451.2,2033.02 1449.07,2027.09C1459.26,2027.61 1459.35,2028.21 1469.2,2025.53C1471.16,2025 1481.36,2022.22 1493.11,2016.75C1518.46,2004.94 1521.37,2003.09 1540.63,1992.93L1549.99,1988.01L1549.93,1987.91C1551.56,1986.9 1566.77,1977.51 1571.11,1976.56L1573.69,1976.57L1578.3,1979.33C1606.15,1994.49 1644.61,2003.87 1687.09,2003.87C1708.33,2003.87 1728.57,2001.52 1746.97,1997.29L1766.5,1984.87C1774.87,1979.39 1784.41,1965.51 1791.78,1957.31C1799.16,1949.11 1804.41,1942.88 1810.72,1935.66C1832.25,1909.98 1833.21,1910.87 1854.22,1884.76C1864.09,1872.49 1901.05,1830.79 1910.75,1819.06C1931.47,1793.99 1934.47,1792.14 1937.32,1788.8C1966.69,1754.36 1967.43,1755.06 1969.96,1752.05C1997.88,1718.85 1998.84,1719.76 2026.64,1686.42C2030.2,1682.16 2034.9,1674.5 2039.91,1673.19Z" style="fill:rgb(17,60,87);"/>
        <path d="M2217.344,1822.497C2220.224,1824.757 2776.22,2713 2809.72,2770.55C2833.42,2811.27 2832.94,2811.46 2835.11,2814.93C2835.44,2815.47 2838.37,2820.16 2836.47,2822.69C2833.34,2826.85 2832.21,2824.37 2819.88,2824.37C2722.2,2824.42 2722.27,2824.02 2713.78,2824.3C2697.57,2824.84 2559.86,2824.64 2546.48,2824.62C2440.69,2824.45 2440.34,2825.32 2435.82,2823.67C2433.39,2822.78 2431.26,2822 2417.37,2797.16C2385.62,2740.4 2385.08,2740.76 2371.72,2715.98C2343.9,2664.38 2330.57,2643.83 2308.28,2602.88C2287.63,2564.93 2286.37,2565.73 2259.41,2517.2C2118.89,2264.28 2117,2265.44 2105.16,2243.25C2097.2,2228.35 2089.45,2220.04 2088.37,2210.36C2087.92,2206.3 2088.17,1969.97 2088.2,1949.07C2088.21,1938.71 2089.32,1938.54 2102.27,1925.13C2115.55,1911.39 2120.55,1905.89 2122.11,1904.18C2150.6,1872.8 2214.954,1825.297 2217.344,1822.497Z" style="fill:rgb(20,62,89);"/>
        <path d="M913.376,347.137C913.376,347.137 869.954,396.986 855.815,412.898C841.677,428.809 821.141,449.313 818.171,452.521C815.63,455.268 815.617,455.24 788.027,483.896C782.745,489.386 724.488,549.895 721.624,552.136C715.288,557.091 714.356,555.813 615.988,556.205L505.689,556.066C492.007,556.099 494.654,562.344 494.54,585.535C494.531,587.037 494.581,1024.4 494.928,1055C492.166,1054.1 492.129,1054.6 489.339,1053.69C485.392,1052.4 485.629,1051.92 485.278,1051.85C483.909,1051.56 482.479,1051.96 481.082,1051.97C476.51,1052.01 476.559,1051.89 423.97,1051.63C328.15,1051.16 307.322,1053.35 302.648,1049.46C297.709,1045.34 299.122,1021.96 299.396,1014.07C299.903,999.474 299.747,634.522 299.747,634.522L296.571,346.513L913.376,347.137Z" style="fill:rgb(17,60,87);"/>
        <path d="M303.527,1764.09C319.799,1801.21 324.066,1813.72 350.611,1858.96C373.011,1897.12 388.703,1915.49 407.925,1936.46C424.628,1954.67 425.085,1954.15 444.005,1969.96C467.396,1989.52 492.146,2001.33 494.533,2009.55C495.732,2013.7 494.953,2097.78 495.251,2181.2C495.292,2192.63 495.589,2275.78 495.279,2324.11C495.263,2326.78 494.79,2329.48 495.222,2332.11C495.349,2332.88 496.193,2338.01 502.097,2339C504.08,2339.33 587.277,2338.29 591.941,2339.21C598.355,2340.47 601.256,2344.61 612.847,2356.02C669.577,2411.9 671.813,2416.4 793.008,2539.22C784.395,2544.97 784.607,2545.29 783.726,2545.42C782.416,2545.61 782.432,2545 767.197,2545.2C697.799,2546.1 697.88,2545.2 628.425,2545.83C618.188,2545.93 618.311,2547.02 616.544,2547.09C614.961,2547.15 613.402,2546.49 611.819,2546.55C580.517,2543.99 401.421,2546.36 330.603,2545.62C309.925,2545.4 299.953,2550.01 299.953,2532.23C299.953,2521.78 300.079,2521.8 300.247,2401.64C300.312,2353.31 301.042,1827.03 300.496,1797.48C300.194,1781.12 295.853,1774.24 299.386,1768.9C300.553,1767.14 302.36,1765.86 303.527,1764.09Z" style="fill:rgb(17,60,87);"/>
        <path d="M590.115,2207.78C588.554,2205.45 585.514,2204.44 585.412,2193.89C585.396,2191.86 585.351,2171.39 585.343,2169.43C585.27,2136.43 584.805,1926.62 585.306,1756.93C585.4,1725.03 584.3,1724.74 585.856,1722.67C588.489,1719.18 589.659,1719.34 592.638,1722.49C597.121,1727.23 611.735,1740.77 625.998,1755.3C634.108,1763.56 633.847,1763.7 641.908,1772C650.907,1781.26 654.444,1783.23 691.322,1820.59C728.799,1858.57 729.548,1857.73 766.793,1896.01C780.906,1910.52 781.277,1910.06 795.483,1924.44C808.333,1937.45 811.573,1939.22 812.237,1948.87C812.388,1951.03 812.229,2238.2 812.217,2263.36C812.135,2410.15 813.174,2410.07 812.995,2422.83C812.877,2431.31 807.848,2430.6 802.362,2424.14C801.323,2422.92 768.407,2390.04 719.385,2339.7C704.864,2324.79 645.862,2265.42 640.238,2259.69C636.195,2255.56 593.392,2211.89 590.115,2207.78Z" style="fill:rgb(174,36,61);"/>
        <path d="M468.936,1322.09C489.661,1322.81 494.589,1320.72 494.923,1332.41C495.099,1338.66 494.923,1719.52 494.907,1753.18C494.842,1900.65 494.829,1900.67 494.662,1901.11C492.523,1906.8 484.599,1898.34 483.987,1897.68C462.286,1874.52 439.013,1857.83 405.731,1786.71C382.058,1736.13 377.331,1733.2 347.89,1630.22C342.652,1611.89 327.871,1543.57 327.479,1540.56C327.12,1537.81 320.168,1488.66 319.686,1479.36C316.51,1418.46 324.866,1400.56 334.647,1381.71C366.925,1319.54 420.072,1322.03 468.936,1322.09Z" style="fill:rgb(177,37,63);"/>
        <path d="M2415.9,1323.2C2466.83,1323.03 2466.9,1322.59 2481.27,1325.26C2485,1325.95 2508.99,1330.4 2525.69,1342.11C2551.78,1360.4 2559.43,1380.76 2565.46,1402.67C2576.34,1442.19 2564.81,1527.69 2563.96,1532.76C2554.83,1587.29 2553.96,1587.1 2548.65,1610.47C2546.09,1621.74 2530.85,1688.8 2504.97,1748.21C2488.45,1786.15 2487.69,1785.78 2486.05,1789.71C2483.62,1795.55 2483.93,1798.69 2478.06,1796.21C2476.97,1795.75 2473.24,1789.06 2470.7,1784.49C2457.37,1760.54 2457.08,1760.78 2443.37,1737.04C2440.29,1731.72 2408.83,1677.27 2404.57,1670.64C2393.52,1653.4 2398.16,1649.54 2397.66,1618.21C2397.22,1590.28 2397.63,1430.74 2397.68,1414.44C2397.88,1339.38 2397.13,1339.4 2397.29,1332.88C2397.45,1326.22 2396.78,1324.45 2403.31,1323.27C2403.31,1323.27 2414.89,1323.21 2415.9,1323.2Z" style="fill:rgb(17,60,87);"/>
        <path d="M797.688,2541C840.137,2587.82 894.661,2641.31 927.086,2674.47C959.512,2707.63 932.485,2679.46 992.243,2739.97C1009.01,2756.94 1009.52,2756.34 1045.37,2793.02C1064.46,2812.55 1067.98,2815.88 1070.01,2817.8C1072.54,2820.2 1072.66,2820.88 1070.36,2823.51C1068.25,2825.91 1067.69,2824.7 1048.65,2824.65L885.402,2824.65C882.158,2824.69 882.186,2824.65 864.986,2824.33C836.457,2796.02 748.457,2703.37 704.626,2656.39C660.795,2609.42 640.884,2591.86 602,2542.47C670.429,2544.11 726.059,2542.56 797.688,2541Z" style="fill:rgb(117,41,63);"/>
        <path d="M1893.37,2824.45C1872.96,2824.45 1873.02,2824.83 1852.57,2824.45C1836.44,2824.15 1833.27,2826.52 1830.84,2823.81C1828.45,2821.13 1828.45,2820.4 1831.09,2817.93C1833.47,2815.71 1838.84,2810.69 1859.35,2788.58C1888.64,2756.98 1890.19,2755.38 1892.92,2752.54C1913.13,2731.56 1944.89,2697.07 1978.26,2662.16C1991.21,2648.61 1990.12,2647.65 1991.46,2646.74C1996.56,2643.27 1998.51,2646.4 1998.83,2646.9C1999.4,2647.83 1998.81,2654.13 1998.75,2654.76C1997.75,2665.47 1998.75,2779.22 1998.35,2814.41C1998.26,2821.78 1998.36,2823.32 1991.18,2824.73C1990.97,2824.77 1976.31,2824.77 1975.01,2824.78C1968.48,2824.78 1968.51,2824.58 1893.37,2824.45Z" style="fill:rgb(17,60,87);"/>
        <path d="M1203.05,2824.1C1202.6,2824.28 1202.11,2823.97 1201.6,2823.55C1201.99,2823.74 1202.46,2823.93 1203.05,2824.1ZM1201.6,2823.55C1200.59,2823.07 1200.05,2822.59 1199.05,2822.3C1199.79,2821.76 1200.71,2822.83 1201.6,2823.55Z" style="fill:rgb(142,36,55);"/>
        <path d="M1152.78,1839.08C1153.28,1839.88 1152.95,1840.43 1152.58,1840.96C1152.65,1840.33 1152.71,1839.7 1152.78,1839.08ZM1152.58,1840.96C1152.51,1841.66 1152.43,1842.36 1152.36,1843.08C1151.71,1842.16 1152.17,1841.57 1152.58,1840.96Z" style="fill:rgb(153,30,52);"/>
        <path d="M1450,2120L1451,2120L1451,2128.96C1450.99,2153.47 1450.9,2175.09 1450.64,2181.66C1450.53,2184.27 1450.75,2184.25 1450.69,2214.37C1450.68,2217.27 1450.62,2219.44 1450.5,2221.14L1450,2225L1450,2120Z" style="fill:rgb(177,37,63);"/>
        <path d="M1561.57,2302.1C1569.16,2301.79 1576.17,2302.19 1583.03,2303.39C1609.45,2307.99 1609.48,2307.22 1635.99,2311.7C1708.8,2324.01 1719.425,2323.51 1744.995,2327.32C1742.295,2339.81 1719.868,2362.618 1711.408,2371.728C1702.948,2380.828 1669.197,2409.618 1661.737,2416.368C1654.287,2423.118 1648.61,2421.03 1646.54,2422.46C1640.78,2422.42 1640.72,2422.21 1635.48,2424.78C1629.64,2427.63 1629.62,2427.46 1623.53,2429.75C1578.03,2446.85 1576.56,2449.22 1554.38,2449.37L1460.45,2449.96L1450,2450L1450,2323L1453.62,2323.4C1457.53,2323.76 1459.05,2323.48 1465.1,2321.95C1510.67,2310.39 1538.78,2303.04 1561.57,2302.1Z" style="fill:rgb(117,41,63);"/>
        <path d="M816.044,992.049C821.249,992.352 826.319,993.996 836.131,995.27C845.631,996.505 921.874,1010.69 925.917,1011.34C941.083,1013.78 969.749,1019.3 970.854,1019.46C1017.23,1026.35 1070.25,1038.98 1178.86,1057.01C1193.98,1059.51 1194.58,1060.93 1200.49,1075.1C1202.74,1080.52 1215.58,1112.56 1216.89,1115.82C1220.11,1123.64 1220.12,1123.58 1220.37,1124.26C1226.56,1140.84 1261.84,1224.98 1264.4,1234.75C1266.85,1244.11 1265.32,1466.9 1265.85,1618.32C1265.91,1633.9 1265.82,1634.32 1257.19,1647.21C1243.64,1667.45 1231.78,1682.23 1230.01,1684.9C1181.69,1757.89 1180.04,1756.94 1167.96,1782.06C1159.76,1802.44 1156.92,1805.2 1152.53,1839.13L1152.3,1840.95C1151.81,1841.54 1151.27,1842.11 1152.04,1843C1146.66,1919.61 1177.56,1961.6 1208.09,1981.06C1260.07,2014.18 1314.23,1977.22 1330.39,1975.03C1339.92,1973.73 1404.536,2018.094 1453.176,2028.864C1455.306,2034.794 1451.7,2229.208 1451,2231.748C1421.8,2221.248 1367,2189.69 1354.68,2189.11C1343.19,2188.58 1262.69,2232.2 1175,2258.84C1126.98,2273.43 1089.99,2273.76 1085.84,2276.41C1080.22,2279.99 1082.64,2293.02 1082.26,2320.37C1082.11,2331.04 1082.9,2334.05 1093.5,2333.02C1104.17,2331.99 1164.54,2326.91 1179.22,2324.82C1203.52,2321.36 1203.61,2322.53 1227.89,2318.76C1341.11,2303.19 1342,2296.97 1395.91,2310.51C1436.25,2320.41 1444.54,2322.06 1448.8,2322.91L1450.13,2323.05L1450.13,2450.45L1443.41,2450.48C1387.48,2450.68 1345.43,2450.42 1337.88,2448.87C1326.08,2446.45 1273.53,2426.86 1272.99,2426.61C1268.22,2424.41 1267.73,2421.75 1263.86,2425.31C1263.28,2425.84 1262.08,2425.95 1261.96,2426.74C1261.73,2428.26 1264.52,2434.07 1264.81,2434.68C1284.05,2474.77 1287.41,2485.86 1300.36,2512.74C1309.36,2531.42 1306.66,2539.59 1326.08,2539.01C1335.54,2538.72 1335.5,2538.92 1444.43,2538.64C1445.35,2539.59 1452.125,2541.546 1453.035,2542.496C1456.265,2545.826 1454.093,2810.263 1452.393,2817.103C1450.993,2822.713 1451.329,2823.782 1450,2825C1448.671,2826.218 1445.91,2822.77 1444.42,2824.41L1432.18,2824.44C1423.99,2824.75 1424.06,2824.75 1415.86,2824.75C1277.25,2824.79 1277.31,2824.66 1211.81,2825C1207.09,2825.02 1204.56,2824.7 1202.99,2824.28C1202.45,2824.14 1202.03,2823.98 1201.67,2823.83C1200.86,2823.22 1200.02,2822.33 1199.34,2822.79C1192.31,2816.73 1192.45,2816.6 1147.9,2772.02C1136.37,2760.49 1101.3,2724.77 1097.26,2720.65C1059.72,2682.42 948.276,2569.89 933.172,2554.19C906.133,2526.1 901.066,2527.47 901.133,2508.12C901.201,2488.78 901.499,2460.37 900.982,1924.44C900.967,1908.08 901.317,1907 889.587,1895.7C867.642,1874.55 861.87,1868.21 856.751,1863.25C793.682,1802.11 794.83,1801.03 764.436,1771.83C747.563,1755.62 715.904,1722.25 695.181,1702.42C680.568,1688.44 681.331,1687.8 666.86,1673.6C636.476,1643.78 636.578,1643.76 633.921,1641.19C611.554,1619.55 612.521,1618.71 591.226,1598.22C585.178,1590.79 585.095,1590.36 585.107,1573.44C585.147,1517.01 585.416,1517.1 585.397,1512.21C585.347,1500.12 584.823,1372 585.154,1361.17C585.702,1343.14 583.458,1328.19 587.366,1324.35C590.205,1321.56 605.869,1322.71 607.832,1322.64C623.496,1322.06 623.418,1322.35 636.405,1322.61C643.957,1322.36 643.908,1322.34 644.561,1322.34C708.296,1322.37 708.292,1323.17 713.786,1322.47C717.502,1322 724.562,1321.11 755.241,1300.72C764.53,1294.55 802.873,1272.63 808.757,1269.02C809.422,1268.61 815.576,1264.84 818.499,1268.49C819.764,1270.08 826.838,1308.82 854.022,1335.17C860.343,1341.29 875.635,1352.39 882.204,1355.3C922.519,1373.21 947.462,1368.16 966.524,1360.17C999.84,1346.2 1013.57,1325.11 1014.81,1323.58C1034.98,1298.69 1035.81,1274.28 1039.49,1270.54C1043.02,1266.95 1047.26,1268.03 1061.19,1279.07C1075.93,1290.77 1082.49,1296.44 1092.77,1308.69C1107.52,1326.28 1113.11,1338.73 1122.76,1347.34C1123.94,1347.48 1124.99,1348.21 1126.17,1348.34C1129.41,1348.72 1129.45,1348.68 1166.58,1342.89C1176.36,1341.37 1176.05,1339.74 1177.35,1339.12C1177.47,1338.2 1178.23,1337.45 1178.35,1336.53C1179.08,1330.66 1160.23,1290.89 1154.09,1279.87C1152.28,1276.62 1142.21,1258.53 1127.04,1242C1115.35,1229.28 1097.84,1208.11 1055.99,1187.2C1003.84,1161.14 961.621,1158.8 954.614,1157.92C950.406,1157.4 922.103,1153.88 901.627,1156.72C865.86,1161.68 850.849,1163.02 812.174,1178.17C778.759,1191.26 755.834,1204.17 751.133,1206.81C748.057,1208.54 728.004,1219.83 713.259,1229.44C706.112,1234.11 705.984,1233.81 697.974,1236.56C697.065,1236.64 697.093,1237.39 660.894,1237.46C590.904,1237.61 590.058,1238.4 586.934,1235.05C585.086,1233.07 585.124,1223.44 585.128,1222.42C585.576,1106 585.018,1106 585.349,1095.88C585.894,1079.23 588.835,1080.11 590.446,1078C603.029,1071.52 673.693,1045.29 693.065,1037.49C728.05,1023.39 786.978,1000.1 795.152,996.873C805.5,992.784 810.839,991.746 816.044,992.049Z" style="fill:rgb(177,37,63);"/>
        <path d="M1349.15,1215.01C1345.61,1206.84 1343.65,1202.29 1307.13,1112C1302.02,1099.36 1254.29,979.461 1252.32,973.898C1245.61,954.964 1244.7,955.381 1237.52,936.566C1232.18,922.609 1230.54,921.966 1207.75,918.165C1196.43,916.279 1101.2,898.556 1077.51,894.992C1057.9,892.042 1001.42,880.477 987.599,878.778C971.42,876.788 930.677,868.97 905.566,864.548C873.864,859.086 822.865,849.039 815.767,849.929C808.917,850.786 799.076,859.171 786.536,866.015C765.379,877.561 611.718,974.456 599.798,982.306C592.684,986.991 592.808,987.276 591.545,987.408C586.668,987.915 585.924,987.198 585.367,982.367C585.213,981.021 584.816,835.336 585.1,830.849C586.045,815.9 587.24,815.637 602.048,800.86C613.351,789.58 624.777,776.369 641.738,758.736C646.459,753.827 710.648,688.655 716.645,682.566C768.455,629.963 773.764,621.915 792.657,603.481C795.104,601.093 825.882,569.085 828.764,566.087C858.197,535.478 872.656,519.931 876.428,515.874C881.827,510.068 882.188,510.426 963.25,427.042C971.601,418.451 974.684,414.583 1015.31,372.956C1030.85,357.033 1127.18,256.229 1131.17,251.954C1134.01,248.919 1134.04,248.997 1167.1,214.452C1207.49,172.236 1207.49,172.255 1210.99,168.573C1238.85,139.243 1239.61,140.073 1267.01,110.209C1269.51,107.485 1304.06,72.162 1307.28,68.862C1321.56,54.258 1322.37,53.419 1342.75,53.324C1375.48,53.171 1375.42,52.961 1408.12,53.006C1415.7,53.279 1415.71,53.002 1416.29,53.301C1418.03,54.188 1418.64,56.591 1420.38,57.479L1424.46,57.554L1428.55,57.495L1432.63,57.551L1436.71,57.854L1440.8,58.361L1446.27,59.42C1450.03,63.116 1451.31,62.652 1451.45,67.898C1451.71,77.015 1450.99,77.007 1451.44,181.903C1451.67,236.27 1451.9,240.32 1451,259.431C1450.5,270.087 1453.74,270.03 1451.98,284.081C1450.33,297.196 1451.46,497.84 1451.19,504.277C1450.42,522.567 1452.17,522.495 1450.81,610.447C1450.74,615.016 1451.09,614.986 1450.89,667.545C1450.6,743.094 1451.5,743.014 1450.63,818.624C1450.58,823.183 1450.83,823.085 1450.82,875.622C1450.82,890.803 1452.55,890.638 1452.45,891.947C1452.32,893.452 1450.9,894.628 1450.69,896.125C1450.29,899.064 1451.09,899.96 1451.31,900.207C1454.45,903.714 1455.84,901.875 1459,905.413C1451.74,915.128 1450.81,915.511 1450.7,945.106C1450.65,959.143 1450.3,1053.54 1451.21,1120.57C1451.28,1125.8 1450.27,1125.72 1450.93,1185.89C1451.75,1261.43 1450.03,1382.52 1451.29,1443.03C1451.45,1450.85 1451.6,1685.51 1451.27,1757.32C1451.19,1775.75 1451.47,1775.68 1450.87,1794.05C1450.68,1799.67 1451.37,1842.94 1451.44,1847.19C1451.57,1855.33 1450.86,1855.26 1451.18,1863.45C1451.71,1877.43 1450.93,1906.08 1451.53,1916.33C1452.05,1925 1452.312,1938.223 1450.002,1940.003C1448.942,1940.813 1441.53,1937.13 1440.47,1937.94C1382.47,1915.49 1366.23,1894.81 1346.79,1888.13C1324.52,1880.47 1299.87,1904.78 1260.91,1911.09C1251.89,1912.56 1245.75,1909.78 1239.48,1888.29C1224.2,1835.98 1250.01,1805.04 1256.31,1793.66C1268.61,1771.41 1283.44,1753.04 1297.38,1732.5C1313.79,1708.32 1314.94,1709.18 1316.36,1707.08C1327.47,1690.6 1326.94,1690.3 1327.9,1688.87C1331.09,1684.16 1336.93,1676.09 1337.73,1674.99C1345.51,1664.23 1348.14,1659.87 1348.96,1658.5C1352.35,1645.49 1351.06,1645.33 1351.12,1577.73L1351.18,1394.07C1351.03,1240.64 1352.17,1230.91 1349.15,1215.01Z" style="fill:rgb(175,35,61);"/>
        <path d="M1451.63,271L1457.5,272.351C1544.42,296.42 1611,432.483 1611,596.729L1610.44,616.704L1609.15,619.348C1607.03,625.185 1602.322,676.193 1596.182,700.756C1590.102,725.089 1580.676,753.633 1567,777.146C1552.453,802.156 1511.325,845.419 1503.912,853.358C1493.58,864.423 1470.374,894.872 1470.374,894.872C1470.374,894.872 1450.912,925.201 1450.002,926.214C1446.832,922.668 1449.75,295.321 1451.4,282.174C1451.84,278.653 1451.97,276.016 1451.92,273.874L1451.63,271Z" style="fill:rgb(135,39,58);"/>
        <path d="M1425.39,55.252L1520.92,54C1556.71,71.253 1607.39,125.608 1640.12,158.768C1672.85,191.927 1708.42,212.032 1717.3,252.957C1726.54,295.553 1723.05,342.341 1724.4,395.137C1725.75,447.933 1726.65,511.43 1725.41,569.733C1699.7,591.834 1661.23,595.809 1643.81,602.967C1643.81,602.967 1622.65,610.609 1612.95,613.501C1610.17,615.739 1606.008,633.336 1606.008,633.336C1606.008,633.336 1608.858,574.634 1603.596,534.128C1595.296,470.228 1542.13,300.601 1457,276.584L1451.25,275.236L1451.01,272.785C1450.49,269.71 1449.82,267.06 1450.07,261.73C1450.95,242.615 1450.73,238.564 1450.5,184.182C1450.06,79.26 1450.76,79.268 1450.51,70.148C1450.37,64.901 1449.11,65.365 1445.43,61.668L1440.06,60.609L1436.05,60.102L1432.04,59.799L1428.04,59.743L1424.03,59.801L1420.02,59.727C1418.32,58.839 1417.71,56.435 1416.01,55.547C1415.44,55.249 1415.44,55.526 1408,55.253L1425.39,55.252Z" style="fill:rgb(117,41,63);"/>
        <path d="M736,2824C735.24,2824.87 734.481,2825.73 734,2824.01C734.624,2824.01 735.289,2824.01 736,2824Z" style="fill:rgb(235,235,235);"/>
        <path d="M738.017,2824.74L736.007,2824.74C736.771,2824.3 737.534,2823.87 738.017,2824.74ZM736.007,2824.74C735.252,2825.17 734.497,2825.6 734.017,2824.74L736.007,2824.74Z" style="fill:rgb(154,54,71);"/>
        <path d="M881.562,2822.6C748.318,2828.01 464.694,2822.59 47.827,2822.57C49.932,2554.9 45.863,1706.04 45.404,1246.9C44.946,787.75 44.945,266.072 45.073,67.695C45.072,66.805 45.049,58.631 46.173,56.634C48.595,52.334 58.606,53.448 117.743,53.419L733.934,53.43C741.215,53.58 746.492,53.012 750.262,53.15C786.51,54.467 861.195,50.583 905.29,55.907C909.144,56.371 1010.31,60.673 1117.62,108.312C1127.54,112.716 1135.15,115.665 1135,120.799C1134.88,124.843 1124.31,133.002 1117.54,141.136C1116.66,142.199 1116.34,141.89 1105.57,153.613C1103.32,156.059 1098.32,162.098 1031.49,230.543C1012.08,250.42 907.76,354 907.76,354C907.76,354 637.773,353.768 611.491,354C581.788,354.262 358.362,353.152 299,354C299.405,442.162 302.479,987.378 302.627,1046.48L398.205,1047.05C429.68,1047.44 451.398,1045.39 491.479,1048.82C491.543,1062.87 495.778,1199.33 494.696,1230.81C493.615,1262.29 491.981,1237.61 484.989,1237.68C431.646,1238.24 392.707,1230.5 329.76,1267.01C328.793,1267.57 327.85,1268.17 326.884,1268.73C301.51,1286.48 266.357,1312.49 244.068,1389.65C243.645,1391.12 232.415,1441.33 235.66,1475.42C236.451,1483.73 243.493,1539.5 243.711,1540.76C250.517,1580.28 255.139,1612.7 265.608,1650.56C287.069,1728.18 299.028,1755.59 302.86,1764.37C308.473,1911.3 304.372,2417.94 305.686,2543.33L611.209,2544.85C656.267,2601.34 684.562,2624.82 729.621,2671.11C774.68,2717.4 846.404,2782.96 881.562,2822.6Z" style="fill:rgb(177,37,63);"/>
        <path d="M1861.05,1268.1C1865.16,1269.14 1865.94,1277.96 1867.9,1284.11C1869.91,1290.42 1883.9,1348.18 1946.11,1365.89C1952.35,1367.67 1964.25,1369.18 1977.26,1368.79L1989,1368.34C1959.79,1461.9 1857.55,1786.09 1809.04,1891.8C1760.53,1997.51 1739.71,1996.44 1697.94,2002.62C1657.17,2008.65 1605.46,1993.89 1577.61,1978.74L1573,1975.98L1575.78,1975.99C1589.32,1978.4 1610.84,1995.75 1656.5,1994.98C1659.8,1994.93 1678.15,1994.62 1696.2,1983.6C1730.49,1962.67 1741.01,1930.1 1745.04,1919.58C1766.06,1852.32 1749.97,1809.97 1740.47,1786.19L1737.93,1781.15L1732.28,1769.92C1712.4,1732.7 1688.42,1701.62 1684.91,1695.81C1675.19,1679.74 1674.18,1680.41 1666.87,1668.68C1659.61,1658.91 1658.24,1657.16 1646.88,1639.45C1645.4,1636.69 1643.43,1635.31 1642.49,1626.52C1642.23,1624.06 1642.57,1366.59 1642.17,1353.17L1642.28,1352.6C1642.29,1352.11 1642.3,1351.62 1642.31,1351.13L1642.1,1350.04L1642.36,1349.38L1642.43,1346.98C1642.47,1344.83 1642.51,1342.68 1642.53,1340.71C1642.55,1339.43 1642.56,1338.16 1642.57,1336.88L1683.99,1337.05C1698.06,1337.11 1719.31,1339.31 1726.9,1340.12C1727.91,1340.46 1728.55,1341.53 1729.55,1341.88C1731.45,1342.52 1731.58,1341.67 1754.31,1345.75C1779.76,1350.32 1782.33,1348.24 1784.19,1346.73C1790.8,1341.36 1795.16,1328.38 1816.71,1305.2C1840.12,1280.03 1841.23,1281.29 1855.67,1270.04C1857.95,1268.27 1859.69,1267.75 1861.05,1268.1Z" style="fill:rgb(117,41,63);"/>
        <path d="M2671.06,354C2671.62,355.126 2671.76,356.435 2672.33,357.56C2674.06,361.006 2675.2,359.871 2710.03,359.981L2832.91,360.259C2837.1,361.315 2837.01,364.819 2837,365.34C2836.96,366.879 2833.18,373.008 2832.78,373.642C2818.79,396.311 2818.73,396.198 2804.94,418.924C2783.18,454.779 2783.97,455.18 2782.04,458.267C2747.52,513.44 2700.3,598.393 2687.08,619.299C2675.62,637.427 2676.38,637.781 2665.74,655.438C2634.12,707.92 2634.77,708.214 2603.19,760.731C2576.26,805.509 2576.75,805.719 2574.36,809.579C2559.17,834.184 2442.33,1031.5 2440.71,1034.64C2433.82,1047.98 2420.81,1068.51 2407.34,1091.36C2398.81,1105.85 2399.04,1105.95 2398.3,1107.21C2377.62,1142.08 2377.85,1142.17 2375.94,1145.13C2367.4,1158.35 2361.17,1170.76 2357.59,1176.58C2341.72,1202.44 2342.27,1202.74 2340.89,1204.99C2305.05,1263.26 2291.42,1289.23 2280.16,1307.26C2267.62,1327.34 2237.48,1380.62 2228.95,1394.12C2220.08,1408.17 2214.16,1419.79 2198.71,1446.14C2191.55,1458.35 2185.55,1462.92 2192.17,1474.65C2196.68,1482.65 2196.72,1482.53 2200.92,1490.71C2212.71,1513.67 2223.59,1529.6 2233.3,1547.96C2240.2,1561 2240.5,1560.76 2244.78,1568.76C2246.42,1571.83 2317,1695.89 2323.28,1706.94C2330,1717.8 2395.67,1834.32 2400.42,1841.89C2400.53,1842.06 2444.68,1918.99 2444.99,1919.64C2450.13,1930.26 2458.6,1942.22 2461.43,1948.15C2468.26,1962.47 2471.47,1965.37 2477.77,1976.68C2490.4,1999.33 2509.16,2032.29 2511.9,2037.12C2566.01,2132.2 2566.94,2131.68 2571.23,2140.16C2576.9,2151.35 2608.35,2205.05 2608.42,2205.2C2616.01,2220.45 2644.63,2266.52 2662.39,2298.55C2681.27,2332.59 2784.54,2510.56 2789.04,2518.84C2794.34,2528.57 2802.7,2536.92 2797.07,2541.65C2794.97,2543.41 2789.15,2542.71 2787.61,2542.7L2718.17,2542.6C2688.51,2542.52 2688.48,2541.42 2685.98,2542.06C2685.43,2542.2 2685.25,2542.97 2684.76,2543.26C2683.99,2543.73 2682.7,2543.52 2682.27,2544.31C2681.68,2545.39 2682.76,2546.92 2682.17,2548C2680.66,2547.02 2680.76,2544.44 2679.25,2543.46C2674.81,2540.59 2645.65,2542.87 2616.07,2541.93C2608.81,2541.7 2567.16,2541.97 2562.91,2542C2546.05,2542.11 2544.52,2541.73 2536.89,2528.75C2525.92,2510.07 2519.09,2500.67 2503.01,2470.03C2488.16,2441.75 2486.88,2442.56 2471.1,2414.71C2468.87,2410.77 2468.78,2410.91 2442.66,2365.74C2438.55,2358.62 2422.61,2333.31 2409.93,2308.53C2406.59,2302.01 2405.4,2302.71 2364.28,2229.17C2356.73,2215.66 2356.3,2215.98 2348.92,2202.36C2339.24,2184.49 2337.6,2185.48 2310.67,2135.67C2302.4,2120.39 2281.44,2086.28 2269.04,2062.6C2267.07,2058.84 2265.8,2059.66 2242.28,2016.73C2237.87,2008.69 2238.08,2008.63 2233.65,2000.58C2225.69,1986.15 2224.84,1986.72 2216.66,1972.44C2203.92,1950.23 2203.9,1950.3 2190.73,1928.38C2189.38,1926.12 2190.04,1925.82 2174.65,1899.65C2169.98,1891.73 2170.47,1891.52 2165.78,1883.67C2157.62,1870.03 2155.76,1871.77 2152.88,1869.52C2152.95,1868.5 2153.46,1867.54 2153.54,1866.52C2153.73,1863.95 2158.44,1867.2 2139.2,1837.69C2119.95,1808.18 2059.19,1722.26 2038.05,1689.46C1999.71,1732.75 1952.9,1784.68 1922.79,1817.5C1892.68,1850.32 1882.81,1857.94 1857.4,1886.39C1832,1914.85 1799.87,1968.59 1770.37,1988.2C1740.401,2008.122 1667.97,2007.86 1673.07,2004.09C1666.64,2007.35 1714.017,2005.317 1758.46,1948.88C1779.591,1922.047 1788.85,1872.25 1792.52,1832.5C1796.19,1792.75 1795.15,1744.34 1780.48,1710.4L1780.17,1709.75L1983.87,1367.91L1987.14,1367.69C1997.11,1366.6 2007.06,1364.22 2015.07,1359.85C2031.38,1350.95 2046.16,1343.79 2074.51,1296.65C2076.42,1293.48 2076.96,1293.92 2100.59,1258.41C2119.93,1229.37 2119.34,1229.01 2130.72,1214.54C2138.79,1204.29 2141.59,1199.7 2129.51,1194.88C2115.2,1189.16 2114.99,1189.85 2097.08,1182.28C2098.37,1180.37 2100.57,1179.2 2101.86,1177.29C2102.52,1176.33 2102.3,1174.99 2102.74,1173.91C2102.96,1173.38 2103.53,1173.05 2103.81,1172.55C2107.62,1165.96 2114.92,1148.21 2128.72,1127.51C2139.29,1111.67 2158.85,1077.03 2165.71,1066.48C2176.01,1050.67 2186.53,1031.15 2189.9,1025.54L2280.26,874.853C2282.83,870.585 2308.14,828.538 2312.12,821.35C2325.41,797.361 2326.49,798.102 2339.96,774.232C2357.5,743.145 2359,744.09 2376.67,713.042C2397.27,676.86 2398.34,677.59 2409.87,657.934C2437.9,610.135 2438.52,610.52 2440.83,606.298C2442.99,602.376 2471.21,553.886 2479.77,539.824C2513.91,483.714 2513.31,483.371 2516.33,478.524C2541.06,438.801 2539.46,437.58 2557.93,409.591C2574.84,383.955 2580.62,366.191 2588.09,362.509C2597.34,357.945 2653.1,361.999 2660.88,360.266C2661.67,360.092 2669.41,358.369 2670.47,357.305C2671.26,356.513 2670.27,354.793 2671.06,354Z" style="fill:rgb(177,37,63);"/>
        <path d="M1673.07,2009.08C1675.17,2008.62 1674.67,2007.7 1676.79,2007.24C1677.11,2007.17 1678.45,2006.87 1680.88,2007.35C1682.34,2007.64 1683.61,2008.59 1685.07,2008.88C1681.07,2008.95 1677.06,2009.02 1673.07,2009.08Z" style="fill:rgb(49,56,79);"/>
        <path d="M1751.08,2346.95C1748.8,2346.51 1748.66,2347.37 1746.39,2346.93C1745.87,2346.83 1746.05,2346.11 1746.6,2346.08C1748.06,2345.98 1749.51,2346.36 1750.9,2346.63C1751.1,2346.67 1750.87,2346.91 1751.08,2346.95Z" style="fill:rgb(14,55,84);"/>
    </g>
</svg>
