<svg width="1366" height="1366" viewBox="0 0 1366 1366" fill="none" xmlns="http://www.w3.org/2000/svg">
<path d="M593.931 35.7L588.598 37.4333L595.264 38.3667C638.064 44.7666 670.998 69.4333 687.798 107.967C702.064 141.033 701.798 182.233 687.131 212.233C682.198 222.233 679.531 224.767 683.264 216.1C689.531 201.033 692.998 173.567 690.598 156.5C686.331 125.7 667.531 99.1666 634.064 76.9C610.598 61.1666 590.064 54.2333 563.931 52.9C534.598 51.4333 511.131 59.5667 491.531 77.8334C482.331 86.3667 480.598 87.4333 471.664 89.7C439.264 97.9667 414.331 113.567 397.398 136.233C389.798 146.233 388.864 148.767 394.331 144.5C401.798 138.633 414.198 131.433 421.664 128.633C432.064 124.9 450.198 121.833 461.798 121.967L471.264 122.1L463.264 123.833C430.331 131.033 395.798 151.567 380.331 172.9C377.664 176.767 369.798 185.833 362.864 193.033C355.931 200.233 348.064 209.7 345.264 213.967C336.598 227.567 334.064 242.5 338.598 254.5L340.064 258.367L345.798 249.7C358.331 231.167 385.264 212.633 408.864 206.5C418.198 204.1 424.064 204.1 416.331 206.5C399.531 211.833 367.531 231.967 352.064 247.167C332.464 266.367 325.798 282.233 326.464 308.233C326.598 315.033 326.731 315.167 329.664 313.7C331.264 312.767 332.998 311.433 333.531 310.633C335.531 307.567 336.064 311.3 334.598 318.1C331.798 330.767 326.864 362.5 327.531 363.567C327.931 364.233 329.398 364.5 330.731 364.1C332.731 363.567 333.398 364.367 333.931 368.367C334.331 371.033 338.598 392.633 343.264 416.5C348.064 440.367 353.131 467.3 354.598 476.5C356.064 485.7 357.531 494.5 357.931 495.967C358.464 498.633 358.198 498.767 352.864 498.233C345.398 497.3 334.731 501.833 329.264 508.1C323.798 514.367 318.998 524.1 316.331 534.767C313.131 547.433 313.131 590.233 316.331 604.233C320.731 623.433 341.131 671.167 352.064 687.967C364.064 706.367 379.131 717.033 395.798 718.9L404.198 719.833L408.598 735.833C418.198 770.5 428.464 791.033 451.398 820.233C458.064 828.633 461.931 834.9 463.264 839.567C466.198 849.567 470.464 875.3 471.531 888.767L472.331 900.367L465.264 907.967C454.864 919.433 449.531 928.1 446.064 939.3C442.464 950.367 439.931 969.567 439.931 984.9C439.931 991.3 439.398 995.3 438.331 996.1C434.598 999.033 407.131 1012.77 380.598 1025.17C299.664 1062.77 247.931 1091.17 212.731 1117.3C191.398 1133.17 186.598 1139.3 194.731 1140.23C196.864 1140.5 201.264 1138.23 207.931 1133.43C237.264 1112.63 286.464 1085.43 359.931 1049.43C388.864 1035.3 418.464 1020.63 425.664 1016.9C440.864 1009.03 439.931 1007.83 435.798 1031.7C428.864 1071.17 433.798 1089.43 460.064 1121.83C473.931 1139.03 487.931 1159.43 499.398 1179.17C506.864 1191.97 518.064 1204.5 522.198 1204.5C527.664 1204.5 528.464 1201.57 526.731 1187.43C523.531 1161.97 521.531 1155.57 510.464 1132.37C502.731 1115.97 499.931 1108.9 499.931 1104.9C499.931 1087.43 518.864 1099.57 530.998 1124.63C534.331 1131.57 538.998 1142.5 541.531 1148.9C548.198 1166.77 552.331 1171.43 572.864 1183.83C592.731 1195.83 598.731 1201.03 603.398 1210.1C608.064 1219.17 607.664 1224.5 601.531 1233.57C585.664 1256.9 574.598 1279.83 574.598 1289.03C574.598 1293.7 577.398 1297.3 579.931 1295.83C580.731 1295.3 584.331 1288.77 587.931 1281.17C596.864 1261.97 611.398 1241.3 628.331 1223.3C636.731 1214.37 643.931 1205.3 645.931 1201.3C647.664 1197.57 651.264 1186.23 653.798 1176.23C661.798 1144.23 667.798 1136.1 697.264 1116.77C758.598 1076.63 785.131 1058.1 815.131 1034.77C843.131 1013.03 874.598 981.167 894.864 954.1C903.664 942.5 916.064 919.167 919.131 908.633C920.331 904.633 921.264 897.3 921.264 892.367C921.264 884.633 920.864 883.033 918.598 881.833C915.398 880.1 914.598 881.833 911.798 894.233C910.864 898.5 909.664 901.433 909.131 900.9C907.798 899.433 905.531 884.633 904.598 871.833C904.198 865.967 903.531 858.367 903.131 854.767C902.598 849.167 902.731 848.5 905.264 848.5C909.798 848.5 917.664 852.367 922.331 856.9C928.464 862.633 933.131 872.633 939.664 893.167C943.531 905.167 947.664 914.767 953.264 924.5C957.664 932.233 962.598 942.633 964.198 947.7C972.331 974.233 958.998 1006.1 918.998 1056.77C878.064 1108.37 836.864 1144.37 738.864 1213.43C725.264 1223.03 725.264 1223.03 724.331 1206.63C723.664 1196.9 724.198 1193.57 729.664 1172.5C736.998 1144.37 738.064 1137.7 735.931 1129.97C732.598 1117.57 721.264 1112.37 713.798 1119.83C709.664 1123.97 710.598 1125.83 717.131 1125.83C719.798 1125.83 722.731 1126.5 723.664 1127.43C726.331 1130.1 725.531 1140.37 721.398 1155.7C716.998 1171.97 719.798 1168.63 692.064 1190.9C683.531 1197.7 668.598 1208.77 658.864 1215.3C636.864 1230.23 631.931 1234.5 631.931 1238.5C631.931 1240.23 632.464 1241.97 633.131 1242.37C636.064 1244.23 673.131 1220.37 698.598 1200.1L712.598 1189.03V1204.5C712.731 1217.7 713.131 1220.63 715.664 1225.43C721.264 1236.1 726.598 1236.37 740.864 1226.77C757.531 1215.57 806.064 1180.9 820.598 1169.97C861.398 1139.17 906.331 1094.77 934.998 1056.9C955.664 1029.57 968.998 1006.5 974.598 987.967C977.664 978.233 977.931 977.967 980.464 979.7C983.131 981.433 994.731 986.9 1109.26 1041.17C1138.2 1054.77 1171.8 1070.77 1183.93 1076.63C1197.13 1082.9 1207.66 1087.17 1210.06 1087.17C1215.66 1087.17 1217 1083.83 1213 1079.43C1209.93 1076.23 1151 1046.5 1102.6 1023.83C1059 1003.3 996.864 974.5 987.664 970.5L978.731 966.5L978.598 958.767C978.598 948.367 974.731 937.433 964.331 918.767C958.464 908.367 954.064 898.1 951.131 888.767C943.264 862.633 939.931 855.3 931.531 846.233C924.864 838.9 917.931 835.3 908.998 834.233L902.198 833.433L902.998 801.3C903.798 768.367 905.664 751.167 910.731 732.5L913.398 722.5H926.998C940.198 722.5 941.131 722.367 951.264 717.3C971.398 707.433 989.798 685.033 1007.26 649.167C1024.2 614.1 1029.93 586.5 1026.73 553.833C1024.2 528.5 1019.53 514.633 1009.8 503.3C1001.26 493.433 985.264 488.233 976.998 492.633C974.598 493.967 974.331 493.833 975.131 491.7C975.664 490.233 978.731 478.1 981.931 464.5C985.131 450.9 990.198 430.367 993.131 418.767C996.998 403.7 998.598 394.9 998.598 388.1C998.598 376.9 1000.73 378.1 1002.06 390.233C1002.86 396.633 1003.26 397.567 1004.86 396.233C1010.46 391.7 1013.53 379.167 1013.4 361.833C1013.26 342.633 1007.13 323.3 995.398 305.433C988.331 294.767 989.664 293.7 997.398 303.433C1002.73 310.1 1014.6 332.9 1014.6 336.367C1014.6 340.233 1018.2 336.367 1022.33 328.367C1025.53 322.1 1026.86 317.3 1027.53 310.5C1029.13 289.967 1021.93 273.3 1002.73 253.3C990.064 240.233 990.064 240.1 996.598 243.833C1000.33 245.833 1005.26 249.033 1007.8 250.633C1010.33 252.367 1012.73 253.567 1013 253.167C1014.6 251.567 1006.46 238.9 999.398 231.833C986.864 219.3 965.664 209.3 930.331 199.033C919.798 195.967 911.131 193.433 910.998 193.3C910.864 193.167 911.531 190.1 912.598 186.5C915.264 177.833 915.131 172.633 911.798 163.833C905.398 146.633 882.464 130.633 852.598 122.367C840.864 119.167 810.064 118.367 796.598 120.9C777.264 124.5 760.864 132.767 748.331 144.9L742.598 150.367V139.7C742.598 108.767 722.064 72.1 696.998 58.5L690.331 54.9L698.064 64.1C718.598 88.6333 726.731 114.5 724.731 149.167C723.664 169.967 721.531 175.967 721.398 158.9C721.264 144.5 718.998 131.7 714.198 119.033C697.264 73.9667 664.198 43.4333 624.198 35.7C612.331 33.4333 601.131 33.4333 593.931 35.7ZM589.264 71.0333C630.864 85.1666 658.198 116.1 667.931 160.233C671.398 175.7 671.264 175.967 665.931 165.433C660.064 153.567 652.864 144.367 640.198 132.233C615.931 109.3 579.131 91.5667 545.131 86.6333C529.931 84.3667 503.531 83.9667 492.598 85.8334C488.998 86.3667 485.798 86.7666 485.531 86.5C484.864 85.9667 499.664 77.9667 508.464 74.2333C523.531 67.8334 535.931 65.8334 557.264 66.3667C574.998 66.6333 577.664 67.0333 589.264 71.0333ZM544.598 99.4333C574.864 103.967 602.731 119.7 622.331 143.3C628.864 151.167 639.931 168.5 639.931 170.767C639.931 171.167 635.931 167.167 631.131 161.967C595.264 123.3 530.864 101.433 469.264 106.9C460.864 107.7 452.731 108.767 451.264 109.3C449.264 109.967 448.998 109.833 450.064 108.633C452.464 105.967 482.198 99.3 496.998 98.1C512.864 96.7666 530.464 97.3 544.598 99.4333ZM844.598 140.5C847.664 141.3 846.598 141.567 839.798 141.7C820.598 141.967 792.864 151.833 777.531 163.7C768.864 170.367 755.798 183.833 749.264 193.033C746.864 196.367 744.598 198.9 744.331 198.767C743.531 197.833 747.798 187.167 752.198 178.767C761.664 160.9 783.264 145.433 804.598 141.3C814.598 139.3 838.064 138.9 844.598 140.5ZM523.531 149.3C523.131 149.7 521.931 149.833 520.998 149.433C519.931 149.033 520.331 148.633 521.798 148.633C523.264 148.5 524.064 148.9 523.531 149.3ZM546.598 154.767C567.264 161.7 587.931 174.5 605.264 190.767C616.064 200.9 630.198 218.367 635.931 228.9C639.798 235.967 638.998 235.3 631.398 224.9C620.731 210.367 597.264 188.633 575.798 173.433C564.998 165.833 547.798 157.033 535.264 152.9C528.464 150.633 527.398 149.967 531.264 150.5C534.198 151.033 541.131 152.9 546.598 154.767ZM484.864 159.833C489.398 160.9 497.131 163.167 502.198 165.033C511.798 168.367 534.998 179.167 534.198 179.967C534.064 180.233 530.064 178.9 525.398 177.033C503.131 167.967 473.264 163.567 450.331 165.7C430.864 167.7 409.398 173.567 397.664 180.5C395.264 181.967 393.264 182.633 393.264 182.1C393.264 180.9 410.598 169.7 417.931 166.1C436.464 157.033 461.798 154.633 484.864 159.833ZM878.331 164.5C880.331 165.033 875.664 165.167 867.931 164.9C833.398 163.3 798.598 177.833 770.598 205.433C758.598 217.433 757.931 217.3 766.731 204.367C782.064 181.7 809.931 166.5 842.598 163.167C853.131 161.967 872.198 162.767 878.331 164.5ZM862.464 192.5C833.664 195.967 802.998 210.1 782.064 229.7L774.198 237.167L780.064 228.633C796.998 204.233 823.798 191.433 857.264 191.433C870.598 191.567 870.864 191.567 862.464 192.5ZM512.064 198.633C525.664 202.9 546.464 213.3 557.664 221.567C562.198 224.9 572.198 232.767 579.931 239.167C587.664 245.433 596.731 252.633 600.331 255.167C603.798 257.567 606.598 259.833 606.598 260.1C606.598 261.567 582.598 246.767 553.664 227.567C527.398 210.1 508.864 200.367 494.198 196.367L484.598 193.7L492.731 194.367C497.264 194.767 505.931 196.633 512.064 198.633ZM907.264 217.7C920.731 221.167 931.664 225.967 942.731 233.167C951.664 238.9 968.998 252.233 965.931 251.033C965.264 250.767 955.264 245.833 943.931 240.233C911.398 224.1 890.598 218.367 867.531 219.3C861.264 219.567 856.464 219.433 856.998 218.9C857.531 218.367 862.198 217.033 867.264 215.967C878.464 213.433 893.798 214.1 907.264 217.7ZM488.598 232.5C499.398 235.433 520.731 243.967 521.931 245.833C522.331 246.367 518.598 245.433 513.531 243.833C494.864 237.3 483.931 235.833 453.931 235.833C428.464 235.833 418.598 236.767 407.931 240.1C406.198 240.633 406.198 240.633 407.931 239.3C410.331 237.567 428.731 231.833 437.931 229.967C448.464 227.833 476.198 229.3 488.598 232.5ZM896.464 250.9C908.464 256.9 911.664 259.967 901.131 255.3C890.864 250.767 873.664 247.833 856.998 247.833C848.464 247.833 841.664 247.7 841.931 247.433C843.398 245.967 857.398 244.767 870.064 244.9C884.598 245.167 884.998 245.3 896.464 250.9ZM407.264 261.967C388.331 272.5 373.931 282.767 360.731 295.167C354.998 300.633 350.864 303.967 351.664 302.5C355.398 295.567 366.864 283.3 374.598 277.833C382.731 272.1 417.798 253.833 420.598 253.833C421.264 253.833 415.264 257.433 407.264 261.967ZM747.398 257.7C746.998 258.233 741.798 261.7 735.931 265.3C730.064 268.9 725.264 272.233 725.264 272.633C725.264 273.833 759.531 268.5 773.931 265.033C775.398 264.767 772.731 266.5 767.931 269.033L759.264 273.567L767.931 273.033C781.931 272.233 818.864 271.3 818.331 271.833C818.198 272.1 813.264 273.433 807.398 274.9C793.931 278.367 791.531 280.5 801.131 280.5C828.598 280.5 860.598 294.367 872.331 311.3C880.731 323.567 882.198 330.633 883.798 369.3L884.731 393.3L895.531 415.3C912.598 449.833 915.798 461.967 922.598 518.5C927.131 556.367 927.398 567.7 924.598 600.5C917.664 678.767 899.131 741.567 869.664 785.833C851.664 813.033 835.131 831.567 808.464 855.033C783.531 877.033 753.664 899.033 731.531 911.7C714.198 921.567 689.531 926.9 653.931 928.1C608.998 929.567 575.531 922.5 554.598 906.9C543.931 898.9 480.331 835.433 467.531 820.1C434.598 780.5 424.864 757.7 406.598 677.433C394.464 624.233 389.664 581.833 391.931 548.5C395.931 490.633 402.331 450.767 414.598 407.167C417.664 396.5 421.531 377.967 423.398 365.833C427.664 337.567 431.664 320.9 435.131 317.7C440.198 312.9 455.798 303.033 464.864 299.033C483.398 290.633 495.531 288.233 521.264 287.833C545.664 287.3 559.798 286.233 564.464 284.5C566.864 283.7 566.598 283.433 562.598 282.5C556.998 281.3 527.264 267.433 528.198 266.5C528.598 266.1 531.798 267.033 535.398 268.633C550.731 275.167 577.531 278.633 596.598 276.633C623.931 273.567 628.198 273.433 639.398 275.167C650.598 276.9 653.798 276.5 650.864 273.567C648.064 270.767 649.131 269.7 652.598 271.967C657.398 275.167 667.931 273.7 680.064 268.367C689.398 264.367 702.731 260.1 703.531 261.033C703.798 261.167 700.998 263.7 697.264 266.633C693.664 269.433 690.731 272.233 690.598 272.767C690.598 273.3 694.598 272.233 699.664 270.367C704.598 268.5 715.531 265.567 724.064 263.967C732.464 262.233 741.131 259.967 743.398 258.767C747.931 256.233 748.331 256.1 747.398 257.7ZM916.998 284.367C940.864 292.633 962.864 313.167 975.931 339.167C981.531 350.233 984.464 359.167 979.798 350.5C966.998 327.167 928.464 291.567 906.864 283.033C896.731 279.167 904.864 280.233 916.998 284.367ZM418.998 292.367C396.331 304.233 379.664 315.7 365.798 329.167C359.664 335.033 354.598 339.7 354.598 339.433C354.598 337.833 364.331 325.167 370.464 318.633C378.864 309.967 388.331 303.033 401.264 296.5C409.531 292.233 432.464 283.3 435.264 283.3C436.064 283.3 428.731 287.3 418.998 292.367ZM909.531 312.9C921.398 321.967 931.931 333.833 942.198 349.433C951.264 363.3 956.064 373.833 961.264 391.167C966.331 408.367 966.331 411.033 961.264 397.433C952.864 374.633 926.998 335.833 905.398 313.3C894.064 301.567 894.731 301.433 909.531 312.9ZM399.664 342.1C394.464 352.233 361.264 403.167 361.264 401.167C361.264 398.233 380.598 365.567 391.531 349.833C398.731 339.567 404.731 331.167 404.998 331.167C405.264 331.167 402.864 336.1 399.664 342.1ZM926.198 374.233C934.198 384.633 942.998 401.567 947.131 414.9C951.131 427.567 951.664 433.567 948.064 424.233C940.331 404.367 922.198 373.967 907.931 356.5L900.864 347.833L910.464 357.167C915.798 362.233 922.864 369.967 926.198 374.233ZM400.064 385.567C394.864 395.833 379.131 420.233 374.998 424.5C370.864 428.633 382.064 408.5 393.131 391.7C399.398 382.1 404.731 374.367 404.998 374.633C405.264 374.767 402.998 379.7 400.064 385.567ZM989.798 506.1C998.731 508.767 1005.8 517.033 1009.8 529.433C1016.33 550.233 1016.86 582.1 1011.26 605.033C1006.73 623.167 992.731 653.433 979.664 673.567C965.264 695.7 946.464 709.433 928.731 710.767C921.531 711.433 919.798 711.167 919.131 709.433C917.931 706.233 926.331 675.167 929.798 669.833C931.531 667.167 937.131 662.5 942.598 659.167C957.531 649.967 967.264 640.233 972.864 629.033C977.398 619.7 977.531 618.767 976.998 608.233C976.598 598.9 975.798 595.833 971.931 588.767C969.531 584.1 964.464 577.7 960.864 574.367C956.464 570.5 954.598 567.833 955.131 566.367C956.864 561.833 968.464 546.9 974.198 541.833C982.064 534.9 986.598 534.767 992.598 541.033C998.731 547.567 1000.6 557.567 999.398 578.233C998.998 587.167 997.798 598.633 996.731 603.833C995.664 608.9 995.131 613.433 995.398 613.7C996.731 615.167 1003.13 597.7 1005.53 586.1C1007.4 576.633 1008.06 569.567 1007.66 559.7C1007.26 547.3 1006.73 545.3 1002.6 537.033C997.131 526.5 988.998 519.567 983.664 520.9C976.198 522.767 957.531 543.567 946.064 562.9C943.264 567.567 940.864 571.167 940.598 570.9C940.064 570.367 944.464 549.7 947.798 536.633C951.131 524.1 955.398 517.433 964.464 511.3C974.331 504.633 980.464 503.3 989.798 506.1ZM361.264 513.7C367.264 516.767 370.998 523.567 374.464 537.3C378.198 551.967 377.931 554.5 373.931 547.3C363.398 529.033 351.398 521.7 341.931 527.967C336.464 531.567 334.331 539.433 334.198 557.167C334.064 573.167 337.531 595.167 340.198 595.167C340.731 595.167 340.998 593.833 340.731 592.1C339.264 584.9 338.731 561.833 339.798 554.767C341.398 545.567 345.531 539.167 349.931 539.167C354.464 539.167 363.398 549.833 369.264 562.367L374.331 572.9L369.931 577.033C363.531 583.167 359.798 591.7 358.731 602.367C356.331 629.7 364.331 647.967 383.398 658.1C386.598 659.7 389.664 662.367 390.464 664.1C392.064 667.567 399.931 700.5 399.931 703.7C399.931 706.633 396.198 706.367 387.531 703.167C370.331 696.767 358.464 679.433 339.531 633.7C328.198 606.367 326.064 596.5 325.931 569.167C325.931 551.167 326.464 544.5 328.464 536.767C333.664 516.367 347.798 506.367 361.264 513.7ZM951.664 581.167C957.131 583.967 963.264 591.167 965.264 597.3C967.531 603.833 966.331 616.767 962.731 624.9C959.531 632.233 949.264 643.567 938.198 651.967C930.864 657.567 928.331 659.033 929.798 656.767C930.598 655.567 932.731 639.3 935.264 617.033C936.864 602.767 937.798 598.767 942.064 589.7C944.731 583.967 947.131 579.167 947.264 579.167C947.398 579.167 949.398 580.1 951.664 581.167ZM380.464 596.767C380.864 602.233 382.731 615.833 384.598 627.167C386.331 638.367 387.531 647.967 387.264 648.367C386.864 648.633 385.131 648.233 383.264 647.433C379.131 645.433 373.931 637.7 370.464 627.7C366.064 615.167 368.464 595.967 375.531 588.233C376.598 586.9 378.064 586.1 378.598 586.5C379.131 586.767 379.931 591.433 380.464 596.767ZM893.131 882.5C893.931 889.833 895.931 901.7 897.531 909.033L900.464 922.1L897.531 927.7C893.264 935.7 875.264 959.3 862.731 973.567C831.264 1008.9 774.731 1052.37 690.464 1105.83C682.864 1110.63 672.198 1119.03 666.464 1124.5C653.798 1137.03 648.598 1147.3 642.064 1172.77C636.598 1194.5 634.998 1197.7 626.198 1206.77C618.998 1214.23 617.264 1215.17 617.264 1211.83C617.264 1207.17 609.798 1195.57 601.664 1187.57C590.331 1176.37 586.064 1167.17 583.264 1147.83C580.731 1129.83 579.531 1124.9 574.998 1113.83C567.664 1095.97 560.998 1087.7 537.798 1067.7C528.198 1059.43 515.798 1047.83 510.331 1041.97L500.198 1031.3L498.064 1019.57C495.798 1006.9 494.998 999.433 489.931 945.167C488.064 925.3 484.998 897.3 483.131 882.633C481.398 868.1 480.064 855.567 480.198 855.033C480.464 854.367 494.731 867.567 512.064 884.233C529.398 901.033 547.131 917.033 551.398 919.833C573.398 934.5 601.798 940.767 645.264 940.767C683.131 940.633 711.798 935.433 732.598 924.9C745.398 918.367 772.464 900.5 788.598 887.833C830.998 854.633 860.331 823.567 882.598 788.233L889.931 776.767L890.731 822.9C891.264 848.367 892.331 875.167 893.131 882.5ZM477.931 949.433C479.664 966.1 481.398 985.567 481.798 992.5C482.598 1004.9 482.598 1005.03 480.464 1000.5C479.264 997.967 477.264 991.033 476.064 985.167C474.198 976.367 473.264 974.5 471.264 974.5C465.131 974.5 466.331 995.433 473.131 1010.5C482.864 1031.97 496.864 1048.77 527.664 1076.1C539.664 1086.63 551.264 1097.83 553.398 1100.9C563.531 1114.63 569.264 1131.3 571.931 1153.43C572.598 1160.23 573.664 1166.63 574.064 1167.83C576.464 1173.97 562.598 1163.97 558.064 1156.23C556.198 1153.03 552.598 1144.77 549.931 1137.83C547.264 1130.9 542.598 1120.5 539.664 1114.77C527.798 1091.97 511.531 1081.17 498.598 1087.83C485.531 1094.5 486.064 1108.63 500.331 1135.17C503.664 1141.43 507.264 1149.83 508.331 1153.83C510.464 1161.7 512.464 1173.43 511.398 1172.5C511.131 1172.1 505.931 1164.37 499.931 1155.17C493.798 1145.97 485.264 1133.83 480.731 1128.1C476.198 1122.37 468.598 1112.5 463.664 1106.1C447.531 1085.43 442.598 1067.57 446.598 1043.17C447.398 1037.7 448.731 1029.57 449.398 1025.17C450.064 1020.77 451.131 1004.23 451.931 988.5C453.264 957.167 455.798 943.7 462.064 932.633C465.664 926.367 473.264 917.433 474.331 918.367C474.598 918.633 476.198 932.633 477.931 949.433Z" fill="#1C1F3F"/>
<path d="M765.264 416.634C747.131 418.367 731.931 421.3 716.865 425.967C705.664 429.434 702.864 430.9 697.931 435.834C691.131 442.5 687.131 453.434 688.331 462.234C689.531 471.3 691.264 471.434 699.531 462.5C705.931 455.567 706.464 455.167 704.198 459.434C702.598 462.234 701.931 464.767 702.464 465.167C704.998 466.634 716.464 463.3 718.865 460.234L721.398 457.167L719.931 460.367C718.464 463.3 718.464 463.434 721.531 462.767C745.264 456.767 792.865 455.167 816.598 459.7C834.331 463.034 847.398 467.3 862.198 474.9C868.998 478.234 874.865 480.634 875.265 480.234C877.665 477.834 864.465 453.967 853.398 440.9C836.998 421.3 825.931 416.367 796.598 415.834C786.331 415.567 772.198 415.967 765.264 416.634ZM836.598 452.5C844.065 460.5 839.398 457.434 828.465 447.3C820.731 440.234 820.198 439.434 825.265 442.9C828.598 445.034 833.665 449.434 836.598 452.5Z" fill="#1C1F3F"/>
<path d="M472.331 422.5C454.464 427.967 436.464 447.434 425.931 472.634C422.731 480.234 421.797 484.5 423.397 484.5C423.797 484.5 429.931 480.9 436.997 476.634C444.064 472.234 454.064 467.434 459.264 465.834C473.797 461.434 500.197 459.7 524.064 461.7C541.264 463.034 577.797 468.234 587.531 470.634C590.197 471.434 590.597 471.034 590.597 467.3C590.597 462.234 588.064 456.234 583.131 449.834C580.197 445.967 580.597 446.1 584.997 450.767C587.931 454.1 591.531 459.834 593.264 464.5C594.864 468.9 596.731 472.5 597.264 472.5C599.131 472.5 600.197 464.767 599.264 458.767C595.531 436.5 577.797 428.234 521.131 422.5C497.664 420.1 479.797 420.1 472.331 422.5Z" fill="#1C1F3F"/>
<path d="M681.531 442.233C677.664 446.367 675.931 451.567 675.931 459.167C675.931 464.5 676.598 466.633 679.664 469.967L683.264 473.967L682.864 465.033C682.598 460.1 682.998 452.5 683.931 448.1C684.731 443.833 685.264 439.967 684.864 439.7C684.598 439.433 683.131 440.5 681.531 442.233Z" fill="#1C1F3F"/>
<path d="M599.131 445.434C599.931 448.5 602.464 465.3 602.998 470.5L603.264 474.5L605.798 469.967C608.598 464.767 608.064 458.1 603.931 448.9C601.531 443.3 597.798 440.767 599.131 445.434Z" fill="#1C1F3F"/>
<path d="M748.331 501.167C737.931 503.967 730.998 507.967 722.864 515.7C712.598 525.434 707.798 535.567 712.731 537.434C715.398 538.367 721.264 535.7 721.264 533.434C721.264 529.834 739.531 515.167 744.064 515.167C744.598 515.167 745.264 518.1 745.798 521.7C746.864 529.3 750.864 535.834 757.264 540.234C763.398 544.367 774.598 543.967 781.131 539.167C786.198 535.567 791.931 524.5 791.931 518.1C791.931 515.834 792.331 513.834 792.731 513.834C793.931 513.834 811.798 522.634 819.798 527.167C827.664 531.567 833.931 532.234 838.064 529.167C840.598 527.3 840.464 527.167 837.264 524.5C829.931 518.634 809.531 507.167 801.798 504.634C784.998 499.034 761.798 497.567 748.331 501.167Z" fill="#1C1F3F"/>
<path d="M603.531 501.3C603.131 501.834 603.264 503.167 603.798 504.367C606.598 509.567 608.331 527.967 607.664 545.167C607.264 555.967 607.398 563.567 608.198 563.967C610.464 565.434 615.798 559.034 618.198 551.967C621.931 541.567 621.531 521.834 617.531 513.167C612.864 503.034 606.864 497.967 603.531 501.3Z" fill="#1C1F3F"/>
<path d="M508.864 505.3C489.664 508.767 470.998 517.833 460.064 528.9C448.998 540.367 459.398 541.033 477.664 529.967C488.331 523.567 498.198 519.167 501.931 519.167C502.864 519.167 503.931 521.833 504.464 525.7C505.531 533.433 509.664 540.1 515.664 543.567C521.531 547.033 533.798 547.167 540.598 543.7C547.664 540.233 550.598 535.7 551.531 526.767L552.331 519.3L557.531 521.967C560.464 523.433 566.464 528.233 570.998 532.633C575.531 536.9 580.198 540.5 581.398 540.5C584.598 540.5 586.998 537.033 585.931 533.967C584.731 529.833 567.264 514.233 559.798 510.367C546.064 503.433 528.598 501.7 508.864 505.3Z" fill="#1C1F3F"/>
<path d="M576.598 628.9C565.798 640.1 562.064 648.9 561.931 663.167C561.931 680.5 567.398 689.167 579.664 690.767C586.064 691.567 594.598 690.233 594.598 688.367C594.598 687.7 592.598 686.233 590.064 685.167C578.064 680.1 572.464 670.233 573.531 655.967C574.064 649.433 575.531 645.033 580.198 636.1C588.064 621.033 586.731 618.367 576.598 628.9Z" fill="#1C1F3F"/>
<path d="M700.731 623.033C699.931 624.233 701.931 627.7 707.531 635.033C713.264 642.633 715.397 653.033 713.397 663.033C711.397 673.3 706.197 680.367 697.397 684.767C688.597 689.3 688.197 689.7 690.597 691.167C695.531 694.233 710.464 691.433 716.197 686.233C717.664 684.9 720.331 680.767 722.064 677.167C724.597 671.7 725.264 668.233 725.264 658.633C725.264 644.633 722.864 638.5 714.464 629.967C709.264 624.767 701.931 621.033 700.731 623.033Z" fill="#1C1F3F"/>
<path d="M594.197 664.767C591.664 666.767 589.264 672.767 589.264 677.3C589.264 680.233 589.797 680.5 596.331 680.5C600.731 680.5 607.931 682.233 616.464 685.167C632.331 690.767 637.397 690.9 648.331 686.367C659.531 681.567 668.597 679.167 676.597 679.033C685.531 678.9 689.798 677.567 690.331 674.767C690.997 671.433 688.198 668.5 681.931 665.7C671.931 661.167 665.664 662.633 652.464 672.633C639.264 682.767 634.731 682.5 615.264 670.5C603.264 663.167 598.331 661.833 594.197 664.767Z" fill="#1C1F3F"/>
<path d="M599.798 743.567C595.664 745.3 586.998 749.967 580.598 753.967C568.998 761.034 568.598 761.167 557.131 761.567L545.398 762.1L544.598 766.1C543.931 768.9 544.331 770.767 545.798 772.367C548.064 774.634 552.731 774.767 593.931 773.834C604.864 773.7 612.998 774.234 619.664 775.7C632.064 778.367 641.798 778.367 656.731 775.7C666.331 773.967 674.464 773.7 700.331 774.367C726.198 774.9 732.998 774.767 736.731 773.167C741.664 771.167 741.931 770.367 739.931 765.3C738.731 761.967 738.198 761.834 728.064 761.834C717.664 761.834 717.131 761.7 700.598 753.167C677.931 741.567 672.064 739.967 656.731 741.167C640.464 742.5 627.798 742.5 616.598 741.3C608.464 740.5 606.331 740.767 599.798 743.567ZM636.598 750.1C642.464 750.1 651.531 749.967 656.598 749.834C666.064 749.7 677.131 752.367 695.398 759.434L703.531 762.5L684.731 762.634C674.464 762.767 658.464 763.7 649.398 764.9C633.664 766.9 632.198 766.9 616.731 764.234C604.998 762.367 597.931 761.834 590.598 762.5C585.131 762.9 580.998 763.034 581.264 762.767C581.664 762.5 587.931 759.034 595.264 755.167C608.598 748.234 608.598 748.234 617.264 749.167C622.064 749.834 630.731 750.234 636.598 750.1Z" fill="#1C1F3F"/>
<path d="M586.998 806.767C584.998 811.833 600.064 818.367 619.398 820.633C634.064 822.367 662.864 820.633 673.931 817.167C683.131 814.367 689.531 810.233 688.998 807.433C688.464 804.767 687.264 804.767 668.198 806.9C649.531 809.033 617.664 808.9 604.598 806.5C590.864 803.967 588.064 803.967 586.998 806.767Z" fill="#1C1F3F"/>
<path d="M548.597 957.833C547.397 959.833 551.797 973.567 556.464 982.5C562.331 993.833 579.664 1010.9 590.597 1016.37C606.331 1023.97 622.997 1026.77 628.731 1022.63C632.197 1019.97 630.731 1018.9 617.531 1014.1C593.931 1005.43 572.864 989.7 563.131 973.433C554.064 958.233 550.597 954.5 548.597 957.833Z" fill="#1C1F3F"/>
</svg>
