<svg width="1248" height="528" viewBox="0 0 1248 528" fill="none" xmlns="http://www.w3.org/2000/svg">
<path d="M221.189 3.04919C135.51 18.2696 51.5414 70.2582 22.9819 126.18C18.3645 134.902 18.7065 146.702 23.4949 150.635C33.4138 158.502 46.411 150.635 40.7675 140.203C38.5443 135.757 46.582 123.615 63.6835 106C100.965 67.693 150.901 40.8436 210.928 26.9913C232.989 22.0319 275.4 20.6638 290.45 24.4261C319.864 31.9508 327.047 47.3421 313.537 74.3626C308.235 85.1365 303.447 91.2931 288.911 105.829C278.992 115.919 264.797 128.574 257.444 133.876C241.71 145.505 155.348 197.836 155.348 195.783C155.348 195.441 169.542 166.198 186.985 131.14C204.429 95.9105 218.623 65.9828 218.623 64.4437C218.623 60.6813 212.98 56.2349 208.02 56.2349C197.759 56.2349 177.238 91.6351 130.892 189.627C80.443 296.169 79.5879 298.735 88.9938 304.036C97.7155 308.995 100.281 305.917 119.776 266.242L137.733 229.815L154.664 224.343C177.58 216.989 190.748 214.082 212.638 211.859C248.38 208.267 280.702 216.134 293.528 231.697C298.658 238.024 303.276 251.021 301.053 253.245C300.369 253.758 291.476 256.836 281.044 259.743C195.878 284.369 94.9793 326.097 52.7385 354.143C30.3355 369.022 11.5238 387.662 5.02527 401.686C-3.01245 418.445 -1.64433 426.483 10.8398 437.257C28.6254 452.99 70.5241 450.938 126.275 431.613C162.53 419.129 217.768 389.715 248.722 366.457C288.569 336.7 320.206 297.024 323.969 272.398C324.995 265.216 325.337 264.874 333.375 262.308C344.833 259.059 361.592 255.81 363.644 256.494C364.67 256.836 361.25 264.018 356.12 272.398C344.491 291.552 339.702 303.865 338.676 317.546C337.821 329.859 340.044 336.7 347.056 342.514C361.934 355.17 386.731 346.277 421.105 316.178C427.604 310.535 433.418 305.917 433.932 305.917C434.445 305.917 434.958 311.39 434.958 318.059C434.958 329.859 435.129 330.201 441.285 336.016C446.587 340.804 449.152 341.83 454.966 341.83C469.161 341.659 484.894 331.912 507.468 309.337L522.517 294.288L523.544 305.233C526.451 335.845 548.17 347.474 577.413 334.135C599.132 324.216 624.443 300.958 637.611 278.897C644.109 267.781 645.819 266.242 659.33 258.546C667.538 254.1 678.312 246.404 683.272 241.615C691.823 233.578 692.507 232.381 691.994 226.224C691.652 221.949 690.625 219.383 688.915 219.041C687.547 218.87 680.707 222.975 673.695 228.105C666.854 233.407 658.988 238.708 656.251 240.247L651.292 242.813V232.894C651.292 213.227 644.28 200.914 629.915 195.441C603.921 185.522 570.06 205.531 531.239 253.245C495.668 297.195 458.045 329.688 458.045 316.52C458.045 302.497 471.555 274.108 489.854 249.311C503.877 230.499 505.929 227.079 505.929 222.462C505.929 216.305 501.483 214.424 492.59 216.818L484.894 218.87L477.027 211.175C472.752 206.899 466.937 202.624 464.372 201.769C448.468 195.783 420.25 206.557 397.163 227.421C387.073 236.485 382.627 238.195 362.276 240.931C354.238 241.957 343.122 243.668 337.308 244.865L326.876 247.088L323.114 237.169C312.511 209.807 280.702 193.218 232.647 189.969L214.348 188.772L227.687 180.221C269.586 153.543 283.78 143.111 300.369 127.377C320.719 107.711 331.664 94.0293 338.676 78.8089C355.778 42.8957 336.624 11.771 292.16 2.36513C275.913 -1.05517 242.736 -0.713142 221.189 3.04919ZM623.929 215.279C628.718 217.844 630.77 227.592 629.06 238.537C628.205 243.668 627.008 248.627 626.495 249.482C624.785 252.389 613.498 253.416 606.657 251.363C591.95 246.917 591.779 233.749 605.973 220.581C613.669 213.398 618.115 212.201 623.929 215.279ZM466.424 226.737C468.819 229.644 469.674 232.381 468.99 234.775C467.279 240.076 420.592 288.645 400.413 306.088C382.285 321.651 370.485 329.004 366.381 327.465C362.789 326.097 363.473 314.981 368.091 303.865C373.563 290.526 385.705 274.108 403.149 256.323C432.563 226.566 457.361 214.937 466.424 226.737ZM576.729 249.824C578.097 255.639 585.28 264.189 591.608 267.439C594.173 268.807 600.5 270.517 605.289 271.372L614.182 272.569L600.158 287.448C584.425 304.036 568.863 315.494 559.457 317.204C554.155 318.23 552.787 317.717 549.88 314.297C547.144 310.877 546.802 308.653 547.657 300.787C549.196 287.79 554.497 272.227 561.68 260.427C568.178 249.653 574.848 241.444 575.361 243.839C575.532 244.523 576.216 247.259 576.729 249.824ZM297.29 275.134C297.29 277.7 290.792 290.184 284.806 299.077C270.27 320.624 243.592 344.909 210.073 366.799C144.574 409.552 53.2516 439.138 27.0862 425.97C8.7876 416.906 30.5065 388.005 76.6807 360.471C124.565 331.912 212.809 295.143 271.296 279.581C295.58 272.911 297.29 272.74 297.29 275.134Z" fill="white"/>
<path d="M1234.97 15.5332C1234.28 16.7303 1232.74 22.3738 1231.55 28.0173C1228.64 42.0405 1218.21 62.9044 1205.38 80.1769C1185.71 106.855 1143.3 146.36 1097.47 180.563C1075.41 197.151 1065.15 203.308 1065.15 200.059C1065.15 199.204 1072.16 181.76 1080.71 161.238C1113.2 83.2552 1125 50.7623 1125 38.7912C1125 32.6347 1120.9 27.1622 1116.11 27.1622C1112.01 27.1622 1105 33.4898 1103.8 38.4492C1101.4 47.855 1027.01 227.934 986.824 321.308C976.563 345.251 966.644 368.851 964.934 373.639C962.027 382.019 962.027 382.703 964.763 386.978C968.012 391.767 976.221 393.135 979.128 389.201C980.838 387.149 1030.09 280.607 1044.8 247.088C1052.84 228.789 1053.01 228.447 1054.89 233.236C1069.6 271.714 1095.93 311.39 1125.69 339.607C1156.81 369.193 1198.37 387.149 1216.33 378.599C1229.32 372.442 1228.3 362.352 1214.62 362.352C1179.9 362.352 1119.7 305.917 1089.09 244.523C1075.92 218.357 1074.73 222.12 1103.8 202.453C1137.32 180.05 1159.72 162.093 1181.44 140.203C1204.53 117.116 1223.68 91.4639 1234.45 69.403C1249.16 39.3043 1251.38 13.481 1239.41 13.481C1237.7 13.481 1235.82 14.5071 1234.97 15.5332Z" fill="white"/>
<path d="M863.351 41.8695C791.353 47.855 734.405 69.574 683.785 110.447C670.788 121.05 661.211 132.508 659.33 139.861C657.961 145.505 664.973 152.345 671.472 151.661C674.892 151.319 676.773 149.438 678.996 144.992C685.666 130.626 720.382 105.829 754.756 90.7798C801.272 70.429 864.206 58.1159 898.409 62.9044C926.113 66.8377 944.07 76.2436 955.186 92.832C962.369 103.264 964.421 110.276 965.447 127.377C967.328 155.766 953.989 198.348 932.441 232.723C900.974 283.172 835.133 335.161 764.162 365.43C719.869 384.413 680.535 393.99 650.437 392.793L634.019 392.28L628.034 385.781C621.022 378.428 620.509 378.428 615.379 382.532C610.59 386.465 611.445 391.938 618.115 399.975C625.64 408.697 634.874 412.46 651.463 413.315C710.976 416.393 801.272 381.506 873.099 327.978C894.475 312.074 929.534 277.186 944.241 257.178C957.067 239.734 973.998 207.241 980.667 187.232C997.085 136.954 991.441 96.0813 964.592 71.4551C954.16 61.8783 929.705 49.2231 913.8 45.2898C903.026 42.5535 876.348 40.8434 863.351 41.8695Z" fill="white"/>
<path d="M823.333 75.3885C813.414 84.4523 769.463 173.038 735.089 253.757C728.249 269.662 716.62 296.34 709.266 312.929C701.741 329.517 695.756 344.738 695.756 346.619C695.756 351.578 700.373 355.511 706.188 355.511C711.318 355.511 711.831 354.485 727.223 322.506C735.944 304.549 753.388 267.268 765.872 240.076C778.356 212.714 796.484 174.577 806.232 155.082C828.977 109.763 839.409 86.3335 839.409 81.203C839.409 77.0987 833.936 71.6262 829.661 71.6262C828.635 71.6262 825.727 73.3363 823.333 75.3885Z" fill="white"/>
<path d="M640.176 432.639C535.857 437.941 437.181 455.898 340.044 487.535C312.169 496.599 277.624 511.819 273.519 516.95C270.783 520.199 272.151 523.962 277.111 527.211C280.018 528.921 278.821 529.263 331.152 513.017C391.349 494.376 478.909 474.88 546.118 465.132C618.457 454.7 670.275 451.28 754.756 451.109C823.162 451.109 850.354 452.648 888.148 458.976C909.183 462.396 912.603 462.567 916.024 460.515C924.061 455.384 920.128 450.767 904.224 447.176C847.447 434.179 733.037 428.022 640.176 432.639Z" fill="white"/>
</svg>
